<?xml version="1.0" encoding="UTF-8" standalone="no"?>
<!-- Created with Inkscape (http://www.inkscape.org/) -->

<svg
   version="1.1"
   id="svg1"
   width="1024"
   height="1024"
   viewBox="0 0 1024 1024"
   sodipodi:docname="sunrise.svg"
   inkscape:version="1.3.2 (091e20e, 2023-11-25, custom)"
   inkscape:export-filename="images\sunrise.png"
   inkscape:export-xdpi="131.25"
   inkscape:export-ydpi="131.25"
   xmlns:inkscape="http://www.inkscape.org/namespaces/inkscape"
   xmlns:sodipodi="http://sodipodi.sourceforge.net/DTD/sodipodi-0.dtd"
   xmlns="http://www.w3.org/2000/svg"
   xmlns:svg="http://www.w3.org/2000/svg">
  <defs
     id="defs1" />
  <sodipodi:namedview
     id="namedview1"
     pagecolor="#505050"
     bordercolor="#eeeeee"
     borderopacity="1"
     inkscape:showpageshadow="0"
     inkscape:pageopacity="0"
     inkscape:pagecheckerboard="0"
     inkscape:deskcolor="#505050"
     inkscape:zoom="0.48751698"
     inkscape:cx="383.57638"
     inkscape:cy="433.83104"
     inkscape:window-width="1920"
     inkscape:window-height="1051"
     inkscape:window-x="-9"
     inkscape:window-y="-9"
     inkscape:window-maximized="1"
     inkscape:current-layer="g3" />
  <g
     id="g3"
     transform="matrix(1.92,0,0,1.92,-126.74699,-149.64244)">
    <path
       style="fill:#fb8923;fill-opacity:1;fill-rule:evenodd;stroke:#f67122;stroke-width:0;stroke-linecap:round;stroke-linejoin:round;stroke-dasharray:none;paint-order:fill markers stroke"
       id="path5"
       sodipodi:type="arc"
       sodipodi:cx="332.68073"
       sodipodi:cy="304.57864"
       sodipodi:rx="160"
       sodipodi:ry="160"
       sodipodi:start="2.6179939"
       sodipodi:end="0.52359878"
       sodipodi:arc-type="chord"
       d="m 194.11666,384.57864 a 160,160 0 0 1 35.71805,-202.56711 160,160 0 0 1 205.69203,0 160,160 0 0 1 35.71805,202.56711 z"
       sodipodi:open="true" />
    <path
       style="fill:#0e4f6a"
       d="m 314.37785,543.96621 c -18.67756,-1.66319 -42.60654,-7.60471 -57.90892,-14.37869 -7.17948,-3.17818 -7.0566,-3.34112 3.49524,-4.63475 11.74398,-1.43978 24.89036,-5.08103 35.97261,-9.96359 18.08911,-7.96962 21.47343,-9.21555 27.25329,-10.03329 8.986,-1.27133 16.66955,0.45426 31.18258,7.00307 19.87714,8.9693 39.71684,13.94129 55.95,14.02152 5.61325,0.0277 3.76054,1.32249 -8.48739,5.93135 -26.52703,9.98204 -59.57566,14.53718 -87.45741,12.05438 z m 87.55295,-34.08792 c -13.5812,-1.57357 -26.49477,-5.71046 -42.29033,-13.54779 -25.1139,-12.46084 -35.25406,-12.44261 -61.76782,0.111 -30.15235,14.2764 -72.68457,18.89574 -86.31935,9.37497 -15.07732,-10.52804 -41.45095,-34.76108 -40.14007,-36.88213 0.3176,-0.51389 3.3634,-0.94215 6.76844,-0.9517 9.17175,-0.0257 17.67981,-2.16644 32.19098,-8.09957 12.81775,-5.24075 13.14721,-5.31574 23.5,-5.34917 l 10.5,-0.0339 12.5,6.1958 c 20.00323,9.91487 28.74017,10.74844 48.58827,4.63564 16.6447,-5.12622 29.27966,-5.25536 43.41173,-0.44368 18.89237,6.43245 29.86879,5.56661 49.50444,-3.90503 19.48656,-9.39972 26.7264,-9.63035 46.49918,-1.48124 16.47598,6.79038 23.74531,8.49851 36.16726,8.49851 6.03477,0 10.97989,0.43493 11.32677,0.9962 2.2482,3.63766 -38.9203,38.39508 -46.7339,39.45613 -17.82124,2.42003 -31.32375,2.86057 -43.7056,1.42596 z M 165.10746,451.99895 c -8.59002,-0.74408 -7.29107,0.41748 -16.0701,-14.37038 -16.57251,-27.91562 -17.59707,-33.78584 -5.37358,-30.78808 13.04967,3.20039 24.03,2.93433 38.8509,-0.94138 15.53774,-4.06316 24.47436,-4.17617 33.48801,-0.42349 19.86783,8.27166 28.785,8.71706 44.36996,2.21621 16.98215,-7.08365 23.16728,-7.07086 43.5,0.09 4.675,1.64645 11.99892,3.55768 16.27537,4.24717 8.96027,1.44465 8.97651,1.49394 1.16321,3.52904 -3.22529,0.84008 -9.93091,3.36698 -14.90137,5.61533 -11.51982,5.21089 -23.19679,9.17226 -31.79917,10.78776 -10.73306,2.01563 -14.89682,6.92308 -9.0978,10.72275 5.10916,3.34765 23.34161,-0.30433 43.18076,-8.64915 18.55634,-7.80524 25.57919,-7.80229 43.179,0.0181 17.66898,7.85116 37.18568,12.36597 41.4311,9.58426 5.54485,-3.63313 2.70921,-8.7155 -6.24242,-11.18837 -15.71545,-4.34136 -20.65193,-6.04542 -31.97691,-11.03829 -6.75853,-2.97965 -14.10607,-5.82599 -16.32787,-6.32519 -6.10521,-1.37175 -5.68326,-1.71546 3.57283,-2.9103 4.73163,-0.61079 13.9655,-2.96972 20.77955,-5.30844 15.55731,-5.33959 24.2201,-5.69582 35.26372,-1.45011 17.65901,6.78897 17.50107,6.75213 27,6.29806 7.6838,-0.36731 10.4792,-1.03599 19.11459,-4.57234 13.11053,-5.36901 20.61453,-5.59523 37.88541,-1.14212 14.38772,3.70972 26.19066,4.02032 38,1 12.92339,-3.30525 12.80329,-4.38621 1.94423,17.5 -13.30682,26.81964 -13.59284,27.07926 -30.94423,28.08801 -12.31407,0.7159 -22.0091,-1.02115 -34.28039,-6.14198 -34.18291,-14.26457 -37.31107,-14.29546 -65.06532,-0.64251 -16.83604,8.28203 -23.96326,9.16122 -39.09039,4.82205 -19.66552,-5.64101 -29.49381,-5.68033 -48.42577,-0.19378 -16.97062,4.91816 -25.97246,3.52487 -47.11504,-7.29237 -19.59368,-10.02478 -26.80071,-9.95653 -50.40488,0.47732 -17.29537,7.64514 -27.2932,9.64603 -41.8834,8.38221 z m 153.06515,-52.03258 c -2.86002,-0.51454 -10.06002,-2.84333 -16,-5.17508 -16.1131,-6.32521 -27.14721,-6.26903 -42.29996,0.21538 -13.98905,5.98642 -23.34048,6.3154 -34.66534,1.21953 -16.13439,-7.26003 -25.13046,-7.73372 -42.81133,-2.25424 -17.04569,5.28263 -28.27859,5.08415 -46.02333,-0.81321 l -8,-2.65875 -1.73082,-6.46918 c -2.86641,-10.71354 28.69299,-15.36699 66.0152,-9.73397 13.79042,2.08138 24.70874,2.13603 37.21562,0.18628 16.37046,-2.55207 32.08303,-2.90765 45.5,-1.02967 18.10926,2.53476 29.11493,2.94144 44.26066,1.6355 11.37523,-0.98083 16.1483,-0.92917 27.73934,0.30019 14.55678,1.54392 15.53284,1.49794 40.5,-1.9079 13.78529,-1.88049 27.7803,-1.56675 45.5,1.02003 13.11954,1.91524 23.76219,1.86981 38.19878,-0.16303 15.97487,-2.24945 41.58696,-2.27258 55.58149,-0.0502 5.92915,0.94157 10.99165,1.71195 11.25,1.71195 1.018,0 0.38708,5.88629 -1.0981,10.24506 -3.58166,10.51159 -33.14045,14.62321 -54.93217,7.64106 -15.70818,-5.03296 -25.4472,-4.7657 -40,1.09766 -15.64473,6.30331 -23.41398,6.31026 -38.5,0.0345 -8.6865,-3.6136 -11.88171,-4.43843 -18.5,-4.7757 -8.44325,-0.43028 -9.16705,-0.26031 -28.93805,6.79531 -9.87003,3.52229 -27.47294,4.86959 -38.26199,2.92852 z"
       id="path3" />
  </g>
</svg>
